<?xml version="1.0" encoding="utf-8"?>
<!-- Generator: Adobe Illustrator 12.0.1, SVG Export Plug-In . SVG Version: 6.00 Build 51448)  -->
<!DOCTYPE svg PUBLIC "-//W3C//DTD SVG 1.1//EN" "http://www.w3.org/Graphics/SVG/1.1/DTD/svg11.dtd" [
	<!ENTITY ns_svg "http://www.w3.org/2000/svg">
	<!ENTITY ns_xlink "http://www.w3.org/1999/xlink">
]>
<svg  version="1.1" xmlns="&ns_svg;" xmlns:xlink="&ns_xlink;" width="560.958" height="297" viewBox="0 0 560.958 297"
	 overflow="visible" enable-background="new 0 0 560.958 297" xml:space="preserve">
<g id="レイヤ_x2212__2">
	<path fill="none" stroke="#C9CACA" stroke-width="18" d="M159.001,276.791C95.671,296.574,39.46,290.142,23.52,257.717
		C3.907,217.818,52.694,153.678,132.488,114.453c79.793-39.226,160.381-38.681,179.992,1.216
		c8.562,17.417,4.088,39.455-10.311,62.023"/>
	<path fill="none" stroke="#898989" stroke-width="18" d="M154,260.405C90.67,280.188,34.459,273.756,18.52,241.331
		C-1.093,201.433,47.693,137.292,127.487,98.067c79.793-39.226,160.38-38.681,179.993,1.216
		c8.562,17.417,4.088,39.455-10.311,62.023"/>
	<path fill="none" stroke="#000000" stroke-width="18" d="M148.816,244.099c-63.33,19.783-119.541,13.351-135.481-19.074
		C-6.278,185.126,42.509,120.985,122.303,81.76c79.793-39.226,160.38-38.681,179.993,1.216c8.562,17.417,4.088,39.455-10.311,62.023
		"/>
</g>
<g id="レイヤー_1">
	<path fill="none" stroke="#000000" stroke-width="20" d="M85.815,154c0,26.153,3.487,50.678,9.581,71.817"/>
	<path fill="none" stroke="#000000" stroke-width="20" d="M220.167,226.045c6.134-21.191,9.647-45.797,9.647-72.045"/>
	<path fill="#EB6100" stroke="#000000" stroke-width="20" d="M85.815,154c0,19.882,32.235,36,72,36s72-16.118,72-36
		c0-79.529-32.235-144-72-144S85.815,74.471,85.815,154z"/>
</g>
<g id="レイヤー_3">
	<g>
		<g>
			<polyline fill="none" points="157.815,37 130.815,109 184.815,91 157.815,163 			"/>
			<g>
				<g>
					<path fill="#FFF100" d="M157.814,37c-5.802,8.375-9.419,14.182-13.627,25.231c-2.279,5.984-9.033,23.996-15.218,40.512
						l-1.151,3.076l-0.569,1.519l-0.07,0.189l-0.036,0.094c9.821,10.19,2.736,2.82,4.934,5.092l0.024-0.008l0.048-0.016l0.381-0.127
						l0.759-0.253c2.017-0.674,3.983-1.331,5.872-1.961c3.778-1.262,7.247-2.421,10.193-3.406c5.893-1.97,9.694-3.241,9.694-3.241
						s3.805-1.264,9.7-3.224c2.948-0.98,6.419-2.134,10.199-3.391c1.89-0.629,3.856-1.283,5.874-1.954l0.759-0.252l0.381-0.127
						l0.048-0.016l0.024-0.008c-2.185-2.275,4.923,5.082-4.892-5.103l-0.036,0.094l-0.07,0.188l-0.57,1.518l-1.154,3.075
						c-6.2,16.51-12.955,34.521-15.172,40.528c-4.096,11.093-5.189,17.847-6.324,27.971c5.802-8.375,9.418-14.181,13.628-25.232
						c2.278-5.984,9.033-23.996,15.218-40.511l1.151-3.076l0.568-1.519l0.071-0.188l0.035-0.095c-9.82-10.19-2.736-2.82-4.934-5.093
						l-0.024,0.008l-0.048,0.016l-0.381,0.127l-0.759,0.253c-2.017,0.673-3.982,1.33-5.872,1.961
						c-3.777,1.262-7.247,2.421-10.193,3.406c-5.893,1.97-9.695,3.241-9.695,3.241s-3.804,1.264-9.7,3.224
						c-2.948,0.98-6.419,2.134-10.199,3.391c-1.89,0.628-3.857,1.283-5.875,1.954l-0.759,0.252l-0.381,0.127l-0.048,0.016
						l-0.024,0.008c2.185,2.276-4.923-5.082,4.892,5.104l0.035-0.094l0.071-0.189l0.57-1.518l1.155-3.075
						c6.2-16.51,12.955-34.522,15.172-40.529C155.585,53.878,156.679,47.125,157.814,37z"/>
				</g>
			</g>
		</g>
	</g>
</g>
<g id="レイヤー_4">
	<g>
		<path d="M274.815,253l5.166-43.219h9.775L294.44,253h-6.558l-1.317-11.625h-4L281.185,253H274.815z M283.12,235.781h2.979
			l-0.672-10.762c-0.039-0.938-0.103-2.033-0.189-3.284c-0.088-1.251-0.239-3.068-0.453-5.454h-0.291
			c-0.059,0.626-0.166,2.18-0.322,4.662c-0.117,1.721-0.214,3.108-0.291,4.164L283.12,235.781z"/>
		<path d="M295.815,253v-34.562h5.51v2.644h0.146c0.409-1.017,0.971-1.779,1.682-2.287c0.713-0.508,1.565-0.763,2.561-0.763
			c1.033,0,1.882,0.249,2.545,0.748s1.15,1.266,1.463,2.302h0.117c0.331-0.978,0.854-1.73,1.564-2.258
			c0.713-0.527,1.576-0.792,2.59-0.792c1.443,0,2.473,0.444,3.088,1.335c0.614,0.889,0.922,2.469,0.922,4.736V253h-5.656v-28.194
			c0-0.703-0.102-1.205-0.307-1.508c-0.203-0.303-0.539-0.454-1.006-0.454c-0.447,0-0.777,0.156-0.992,0.469
			c-0.213,0.312-0.32,0.81-0.32,1.493V253h-5.625v-28.194c0-0.703-0.107-1.205-0.32-1.508c-0.215-0.303-0.545-0.454-0.992-0.454
			c-0.467,0-0.803,0.156-1.006,0.469c-0.205,0.312-0.307,0.81-0.307,1.493V253H295.815z"/>
		<path d="M334.635,218.438V253h-5.629v-2.646h-0.117c-0.43,1.018-1,1.779-1.713,2.289c-0.713,0.508-1.567,0.763-2.562,0.763
			c-1.465,0-2.51-0.431-3.135-1.291s-0.938-2.456-0.938-4.784v-28.894h5.781v28.19c0,0.684,0.102,1.172,0.307,1.465
			c0.203,0.293,0.539,0.438,1.006,0.438s0.803-0.146,1.006-0.438c0.205-0.293,0.307-0.781,0.307-1.465v-28.19H334.635z"/>
		<path d="M345.555,223.966c0-0.684-0.102-1.178-0.307-1.48c-0.203-0.303-0.539-0.454-1.006-0.454s-0.803,0.146-1.006,0.439
			c-0.205,0.293-0.307,0.792-0.307,1.495v1.904c0,0.84,0.116,1.593,0.35,2.257s0.612,1.338,1.138,2.021l4.073,5.095
			c0.156,0.176,0.371,0.439,0.646,0.791c1.486,1.777,2.23,3.829,2.23,6.154v4.694c0,2.226-0.597,3.891-1.789,4.993
			c-1.192,1.104-2.972,1.655-5.337,1.655c-2.386,0-4.175-0.552-5.366-1.655c-1.193-1.103-1.789-2.768-1.789-4.993v-7.57h5.844v8.128
			c0,0.704,0.102,1.208,0.307,1.512c0.203,0.303,0.539,0.454,1.006,0.454c0.447,0,0.777-0.156,0.992-0.47
			c0.213-0.312,0.32-0.812,0.32-1.496v-2.67c0-1.271-0.093-2.221-0.277-2.846c-0.185-0.627-0.51-1.232-0.977-1.82l-4.514-5.594
			c-1.115-1.386-1.845-2.514-2.188-3.383c-0.343-0.868-0.514-1.82-0.514-2.855v-3.721c0-2.227,0.596-3.9,1.789-5.023
			c1.191-1.123,2.98-1.685,5.366-1.685c2.365,0,4.145,0.562,5.337,1.685s1.789,2.797,1.789,5.023v6.417h-5.812V223.966z"/>
		<path d="M359.6,247.44c0,0.685,0.102,1.184,0.307,1.496c0.203,0.313,0.539,0.47,1.006,0.47c0.447,0,0.777-0.151,0.992-0.454
			c0.213-0.304,0.32-0.808,0.32-1.512v-8.128h5.812v7.57c0,2.226-0.597,3.891-1.789,4.993c-1.192,1.104-2.972,1.655-5.337,1.655
			c-2.386,0-4.175-0.552-5.366-1.655c-1.193-1.103-1.789-2.768-1.789-4.993v-22.331c0-2.227,0.596-3.9,1.789-5.023
			c1.191-1.123,2.98-1.685,5.366-1.685c2.365,0,4.145,0.562,5.337,1.685s1.789,2.797,1.789,5.023v12.011H359.6V247.44z
			 M362.225,232.438v-8.472c0-0.684-0.102-1.178-0.307-1.48c-0.203-0.303-0.539-0.454-1.006-0.454s-0.803,0.147-1.006,0.44
			c-0.205,0.293-0.307,0.791-0.307,1.494v8.472H362.225z"/>
		<path d="M370.551,253v-34.562h5.51v2.644h0.146c0.409-1.017,0.971-1.779,1.682-2.287c0.713-0.508,1.565-0.763,2.561-0.763
			c1.033,0,1.882,0.249,2.545,0.748s1.15,1.266,1.463,2.302h0.117c0.331-0.978,0.854-1.73,1.564-2.258
			c0.713-0.527,1.576-0.792,2.59-0.792c1.443,0,2.473,0.444,3.088,1.335c0.614,0.889,0.922,2.469,0.922,4.736V253h-5.656v-28.194
			c0-0.703-0.102-1.205-0.307-1.508c-0.203-0.303-0.539-0.454-1.006-0.454c-0.447,0-0.777,0.156-0.992,0.469
			c-0.213,0.312-0.32,0.81-0.32,1.493V253h-5.625v-28.194c0-0.703-0.107-1.205-0.32-1.508c-0.215-0.303-0.545-0.454-0.992-0.454
			c-0.467,0-0.803,0.156-1.006,0.469c-0.205,0.312-0.307,0.81-0.307,1.493V253H370.551z"/>
		<path d="M400.997,247.44c0,0.685,0.102,1.184,0.307,1.496c0.203,0.313,0.539,0.47,1.006,0.47c0.447,0,0.777-0.151,0.992-0.454
			c0.213-0.304,0.32-0.808,0.32-1.512v-8.128h5.812v7.57c0,2.226-0.597,3.891-1.789,4.993c-1.192,1.104-2.972,1.655-5.337,1.655
			c-2.386,0-4.175-0.552-5.366-1.655c-1.193-1.103-1.789-2.768-1.789-4.993v-22.331c0-2.227,0.596-3.9,1.789-5.023
			c1.191-1.123,2.98-1.685,5.366-1.685c2.365,0,4.145,0.562,5.337,1.685s1.789,2.797,1.789,5.023v12.011h-8.438V247.44z
			 M403.622,232.438v-8.472c0-0.684-0.102-1.178-0.307-1.48c-0.203-0.303-0.539-0.454-1.006-0.454s-0.803,0.147-1.006,0.44
			c-0.205,0.293-0.307,0.791-0.307,1.494v8.472H403.622z"/>
		<path d="M411.948,253v-34.562h5.664v2.644h0.117c0.469-1.056,1.049-1.828,1.742-2.316c0.691-0.488,1.526-0.733,2.502-0.733
			c1.482,0,2.531,0.435,3.146,1.306c0.614,0.869,0.922,2.459,0.922,4.766V253h-5.688v-28.194c0-0.703-0.107-1.205-0.32-1.508
			c-0.215-0.303-0.545-0.454-0.992-0.454c-0.467,0-0.803,0.156-1.006,0.469c-0.205,0.312-0.307,0.81-0.307,1.493V253H411.948z"/>
		<path d="M436.305,253h-3.168c-1.78,0-2.979-0.244-3.596-0.732c-0.615-0.488-0.924-1.641-0.924-3.457v-25.686h-1.625v-4.688h1.625
			v-6.594h5.781v6.594h1.906v4.688h-1.906v23.694c0,0.527,0.083,0.907,0.249,1.142s0.444,0.352,0.836,0.352h0.821V253z"/>
		<path d="M447.276,216.642c0-0.957-0.142-1.627-0.425-2.008s-0.757-0.571-1.42-0.571c-0.664,0-1.142,0.19-1.435,0.571
			s-0.439,1.051-0.439,2.008v29.283c0,0.977,0.146,1.661,0.439,2.052s0.771,0.586,1.435,0.586c0.663,0,1.137-0.195,1.42-0.586
			s0.425-1.075,0.425-2.052v-9.703h6.469v9.469c0,2.711-0.703,4.768-2.107,6.172c-1.406,1.404-3.475,2.106-6.206,2.106
			c-2.752,0-4.83-0.702-6.235-2.106s-2.107-3.461-2.107-6.172v-28.521c0-2.715,0.702-4.771,2.107-6.168
			c1.405-1.396,3.483-2.095,6.235-2.095c2.731,0,4.8,0.698,6.206,2.095c1.404,1.397,2.107,3.453,2.107,6.168v8.589h-6.469V216.642z"
			/>
		<path d="M455.747,253v-34.562h5.664v2.644h0.117c0.41-1.017,0.971-1.779,1.684-2.287c0.711-0.508,1.565-0.763,2.561-0.763
			c1.482,0,2.531,0.435,3.146,1.306c0.614,0.869,0.922,2.459,0.922,4.766v12.297h-5.688v-11.594c0-0.703-0.107-1.205-0.32-1.508
			c-0.215-0.303-0.545-0.454-0.992-0.454c-0.467,0-0.803,0.156-1.006,0.469c-0.205,0.312-0.307,0.81-0.307,1.493V253H455.747z"/>
		<path d="M477.842,247.44c0,0.685,0.102,1.184,0.307,1.496c0.203,0.313,0.539,0.47,1.006,0.47c0.447,0,0.777-0.151,0.992-0.454
			c0.213-0.304,0.32-0.808,0.32-1.512v-8.128h5.812v7.57c0,2.226-0.597,3.891-1.789,4.993c-1.192,1.104-2.972,1.655-5.337,1.655
			c-2.386,0-4.175-0.552-5.366-1.655c-1.193-1.103-1.789-2.768-1.789-4.993v-22.331c0-2.227,0.596-3.9,1.789-5.023
			c1.191-1.123,2.98-1.685,5.366-1.685c2.365,0,4.145,0.562,5.337,1.685s1.789,2.797,1.789,5.023v12.011h-8.438V247.44z
			 M480.467,232.438v-8.472c0-0.684-0.102-1.178-0.307-1.48c-0.203-0.303-0.539-0.454-1.006-0.454s-0.803,0.147-1.006,0.44
			c-0.205,0.293-0.307,0.791-0.307,1.494v8.472H480.467z"/>
		<path d="M502.997,253h-5.691c-0.059-0.255-0.103-0.544-0.132-0.867s-0.044-0.681-0.044-1.073v-0.705h-0.117
			c-0.566,1.076-1.191,1.854-1.874,2.333s-1.503,0.719-2.459,0.719c-1.464,0-2.499-0.425-3.104-1.276s-0.907-2.451-0.907-4.799
			v-7.347c0-1.951,0.254-3.415,0.762-4.391c0.509-0.976,1.438-1.874,2.787-2.693c0.271-0.176,0.682-0.43,1.228-0.762
			c2.378-1.425,3.567-3.056,3.567-4.892v-3.281c0-0.684-0.107-1.178-0.32-1.48c-0.215-0.303-0.545-0.454-0.992-0.454
			c-0.467,0-0.803,0.146-1.006,0.439c-0.205,0.293-0.307,0.792-0.307,1.495v7.003h-5.719v-6.417c0-2.266,0.576-3.949,1.729-5.053
			s2.92-1.655,5.304-1.655c2.441,0,4.229,0.532,5.362,1.597s1.699,2.768,1.699,5.111v24.479c0,0.726,0.02,1.411,0.059,2.058
			S502.918,252.373,502.997,253z M494.387,239.779v6.849c0,0.684,0.102,1.172,0.307,1.465c0.203,0.293,0.539,0.438,1.006,0.438
			c0.447,0,0.777-0.146,0.992-0.438c0.213-0.293,0.32-0.781,0.32-1.465v-11.561c-1.031,0.663-1.727,1.307-2.086,1.932
			S494.387,238.55,494.387,239.779z"/>
		<path d="M513.034,253h-3.168c-1.78,0-2.979-0.244-3.596-0.732c-0.615-0.488-0.924-1.641-0.924-3.457v-25.686h-1.625v-4.688h1.625
			v-6.594h5.781v6.594h1.906v4.688h-1.906v23.694c0,0.527,0.083,0.907,0.249,1.142s0.444,0.352,0.836,0.352h0.821V253z"/>
		<path d="M513.629,224.552c0-2.227,0.596-3.9,1.789-5.023c1.191-1.123,2.98-1.685,5.366-1.685c2.365,0,4.145,0.562,5.337,1.685
			s1.789,2.797,1.789,5.023v22.334c0,2.225-0.597,3.889-1.789,4.992c-1.192,1.102-2.972,1.653-5.337,1.653
			c-2.386,0-4.175-0.552-5.366-1.653c-1.193-1.104-1.789-2.768-1.789-4.992V224.552z M519.473,223.966v23.477
			c0,0.684,0.102,1.183,0.307,1.495c0.203,0.312,0.539,0.469,1.006,0.469c0.447,0,0.777-0.151,0.992-0.454
			c0.213-0.303,0.32-0.807,0.32-1.51v-23.477c0-0.684-0.102-1.178-0.307-1.48c-0.203-0.303-0.539-0.454-1.006-0.454
			s-0.803,0.147-1.006,0.44C519.575,222.765,519.473,223.263,519.473,223.966z"/>
		<path d="M530.424,253v-34.562h5.664v2.644h0.117c0.41-1.017,0.971-1.779,1.684-2.287c0.711-0.508,1.565-0.763,2.561-0.763
			c1.482,0,2.531,0.435,3.146,1.306c0.614,0.869,0.922,2.459,0.922,4.766v12.297h-5.688v-11.594c0-0.703-0.107-1.205-0.32-1.508
			c-0.215-0.303-0.545-0.454-0.992-0.454c-0.467,0-0.803,0.156-1.006,0.469c-0.205,0.312-0.307,0.81-0.307,1.493V253H530.424z"/>
		<path d="M555.145,223.966c0-0.684-0.102-1.178-0.307-1.48c-0.203-0.303-0.539-0.454-1.006-0.454s-0.803,0.146-1.006,0.439
			c-0.205,0.293-0.307,0.792-0.307,1.495v1.904c0,0.84,0.116,1.593,0.35,2.257s0.612,1.338,1.138,2.021l4.073,5.095
			c0.156,0.176,0.371,0.439,0.646,0.791c1.486,1.777,2.23,3.829,2.23,6.154v4.694c0,2.226-0.597,3.891-1.789,4.993
			c-1.192,1.104-2.972,1.655-5.337,1.655c-2.386,0-4.175-0.552-5.366-1.655c-1.193-1.103-1.789-2.768-1.789-4.993v-7.57h5.844v8.128
			c0,0.704,0.102,1.208,0.307,1.512c0.203,0.303,0.539,0.454,1.006,0.454c0.447,0,0.777-0.156,0.992-0.47
			c0.213-0.312,0.32-0.812,0.32-1.496v-2.67c0-1.271-0.093-2.221-0.277-2.846c-0.185-0.627-0.51-1.232-0.977-1.82l-4.514-5.594
			c-1.115-1.386-1.845-2.514-2.188-3.383c-0.343-0.868-0.514-1.82-0.514-2.855v-3.721c0-2.227,0.596-3.9,1.789-5.023
			c1.191-1.123,2.98-1.685,5.366-1.685c2.365,0,4.145,0.562,5.337,1.685s1.789,2.797,1.789,5.023v6.417h-5.812V223.966z"/>
	</g>
</g>
</svg>
